<svg data-v-423bf9ae="" xmlns="http://www.w3.org/2000/svg" viewBox="0 0 663 90" class="iconLeft"><!----><!----><!----><g data-v-423bf9ae="" id="66f667ce-9c63-4ae0-910f-3c514b028fea" fill="#FFE894" transform="matrix(5.8365760270947415,0,0,5.8365760270947415,117.52423093750605,-6.245136158813153)"><path d="M2.65 13.75L1.20 13.75L1.20 3.95L4.45 3.95L4.45 3.95Q6.12 3.95 6.90 4.81L6.90 4.81L6.90 4.81Q7.67 5.67 7.67 6.93L7.67 6.93L7.67 6.93Q7.67 8.11 6.87 9.01L6.87 9.01L6.87 9.01Q6.06 9.91 4.45 9.91L4.45 9.91L2.65 9.91L2.65 13.75ZM2.65 5.28L2.65 8.58L4.54 8.58L4.54 8.58Q5.39 8.58 5.80 8.09L5.80 8.09L5.80 8.09Q6.22 7.60 6.22 6.93L6.22 6.93L6.22 6.93Q6.22 6.29 5.82 5.78L5.82 5.78L5.82 5.78Q5.43 5.28 4.54 5.28L4.54 5.28L2.65 5.28ZM13.64 3.64L13.64 12.50L15.68 12.50L15.68 13.75L10.18 13.75L10.18 12.50L12.24 12.50L12.24 4.87L10.54 4.87L9.90 3.64L13.64 3.64ZM21.06 13.92L21.06 13.92L21.06 13.92Q19.89 13.92 19.17 13.29L19.17 13.29L19.17 13.29Q18.44 12.67 18.44 11.52L18.44 11.52L18.44 11.52Q18.44 10.36 19.26 9.76L19.26 9.76L19.26 9.76Q20.08 9.16 21.24 9.16L21.24 9.16L21.24 9.16Q22.30 9.16 23.10 9.58L23.10 9.58L23.10 9.09L23.10 9.09Q23.10 7.64 21.64 7.64L21.64 7.64L21.64 7.64Q20.54 7.64 19.36 8.39L19.36 8.39L18.94 7.24L18.94 7.24Q20.22 6.43 21.77 6.43L21.77 6.43L21.77 6.43Q24.46 6.43 24.46 9.04L24.46 9.04L24.46 13.75L23.10 13.75L23.10 13.13L23.10 13.13Q22.29 13.92 21.06 13.92ZM21.28 12.68L21.28 12.68L21.28 12.68Q22.32 12.68 23.10 11.84L23.10 11.84L23.10 10.77L23.10 10.77Q22.36 10.35 21.45 10.35L21.45 10.35L21.45 10.35Q20.73 10.35 20.26 10.65L20.26 10.65L20.26 10.65Q19.78 10.95 19.78 11.52L19.78 11.52L19.78 11.52Q19.78 12.05 20.18 12.37L20.18 12.37L20.18 12.37Q20.58 12.68 21.28 12.68ZM30.56 6.43L30.56 6.43L30.56 6.43Q33.21 6.43 33.21 9.51L33.21 9.51L33.21 13.75L31.81 13.75L31.81 9.60L31.81 9.60Q31.81 7.74 30.24 7.74L30.24 7.74L30.24 7.74Q28.57 7.74 28.57 9.58L28.57 9.58L28.57 13.75L27.17 13.75L27.17 6.59L28.48 6.59L28.48 7.46L28.48 7.46Q28.74 7.00 29.30 6.71L29.30 6.71L29.30 6.71Q29.86 6.43 30.56 6.43ZM39.47 13.92L39.47 13.92L39.47 13.92Q37.51 13.92 37.51 12.04L37.51 12.04L37.51 7.83L35.94 7.83L35.94 6.59L37.51 6.59L37.51 4.31L38.91 3.64L38.91 6.59L41.31 6.59L41.31 7.83L38.91 7.83L38.91 11.70L38.91 11.70Q38.91 12.18 39.13 12.42L39.13 12.42L39.13 12.42Q39.35 12.66 39.93 12.66L39.93 12.66L39.93 12.66Q40.56 12.66 41.19 12.29L41.19 12.29L41.03 13.59L41.03 13.59Q40.42 13.92 39.47 13.92ZM46.93 13.92L46.93 13.92L46.93 13.92Q45.77 13.92 45.04 13.29L45.04 13.29L45.04 13.29Q44.31 12.67 44.31 11.52L44.31 11.52L44.31 11.52Q44.31 10.36 45.13 9.76L45.13 9.76L45.13 9.76Q45.95 9.16 47.11 9.16L47.11 9.16L47.11 9.16Q48.17 9.16 48.97 9.58L48.97 9.58L48.97 9.09L48.97 9.09Q48.97 7.64 47.52 7.64L47.52 7.64L47.52 7.64Q46.41 7.64 45.23 8.39L45.23 8.39L44.81 7.24L44.81 7.24Q46.09 6.43 47.64 6.43L47.64 6.43L47.64 6.43Q50.33 6.43 50.33 9.04L50.33 9.04L50.33 13.75L48.97 13.75L48.97 13.13L48.97 13.13Q48.16 13.92 46.93 13.92ZM47.15 12.68L47.15 12.68L47.15 12.68Q48.19 12.68 48.97 11.84L48.97 11.84L48.97 10.77L48.97 10.77Q48.23 10.35 47.32 10.35L47.32 10.35L47.32 10.35Q46.61 10.35 46.13 10.65L46.13 10.65L46.13 10.65Q45.65 10.95 45.65 11.52L45.65 11.52L45.65 11.52Q45.65 12.05 46.05 12.37L46.05 12.37L46.05 12.37Q46.45 12.68 47.15 12.68ZM56.43 6.43L56.43 6.43L56.43 6.43Q59.08 6.43 59.08 9.51L59.08 9.51L59.08 13.75L57.68 13.75L57.68 9.60L57.68 9.60Q57.68 7.74 56.11 7.74L56.11 7.74L56.11 7.74Q54.45 7.74 54.45 9.58L54.45 9.58L54.45 13.75L53.05 13.75L53.05 6.59L54.35 6.59L54.35 7.46L54.35 7.46Q54.61 7.00 55.17 6.71L55.17 6.71L55.17 6.71Q55.73 6.43 56.43 6.43ZM65.34 13.92L65.34 13.92L65.34 13.92Q63.38 13.92 63.38 12.04L63.38 12.04L63.38 7.83L61.81 7.83L61.81 6.59L63.38 6.59L63.38 4.31L64.78 3.64L64.78 6.59L67.19 6.59L67.19 7.83L64.78 7.83L64.78 11.70L64.78 11.70Q64.78 12.18 65.00 12.42L65.00 12.42L65.00 12.42Q65.23 12.66 65.80 12.66L65.80 12.66L65.80 12.66Q66.43 12.66 67.06 12.29L67.06 12.29L66.91 13.59L66.91 13.59Q66.29 13.92 65.34 13.92ZM74.03 5.19L74.03 5.19L74.03 5.19Q73.78 5.43 73.42 5.43L73.42 5.43L73.42 5.43Q73.05 5.43 72.81 5.18L72.81 5.18L72.81 5.18Q72.56 4.93 72.56 4.58L72.56 4.58L72.56 4.58Q72.56 4.23 72.81 3.98L72.81 3.98L72.81 3.98Q73.05 3.72 73.42 3.72L73.42 3.72L73.42 3.72Q73.78 3.72 74.03 3.97L74.03 3.97L74.03 3.97Q74.27 4.21 74.27 4.58L74.27 4.58L74.27 4.58Q74.27 4.94 74.03 5.19ZM74.12 6.59L74.12 12.50L76.09 12.50L76.09 13.75L70.74 13.75L70.74 12.50L72.72 12.50L72.72 7.83L70.74 7.83L70.74 6.59L74.12 6.59ZM82.08 13.92L82.08 13.92L82.08 13.92Q80.63 13.92 79.77 12.93L79.77 12.93L79.77 12.93Q78.92 11.94 78.92 10.18L78.92 10.18L78.92 10.18Q78.92 8.43 79.79 7.43L79.79 7.43L79.79 7.43Q80.65 6.43 82.14 6.43L82.14 6.43L82.14 6.43Q84.25 6.43 84.90 8.22L84.90 8.22L83.58 8.68L83.58 8.68Q83.20 7.74 82.14 7.74L82.14 7.74L82.14 7.74Q81.27 7.74 80.81 8.39L80.81 8.39L80.81 8.39Q80.36 9.04 80.36 10.18L80.36 10.18L80.36 10.18Q80.36 11.33 80.81 11.96L80.81 11.96L80.81 11.96Q81.26 12.60 82.10 12.60L82.10 12.60L82.10 12.60Q83.29 12.60 83.64 11.54L83.64 11.54L84.95 11.96L84.95 11.96Q84.34 13.92 82.08 13.92ZM90.05 13.92L90.05 13.92L90.05 13.92Q88.89 13.92 88.16 13.29L88.16 13.29L88.16 13.29Q87.43 12.67 87.43 11.52L87.43 11.52L87.43 11.52Q87.43 10.36 88.25 9.76L88.25 9.76L88.25 9.76Q89.07 9.16 90.23 9.16L90.23 9.16L90.23 9.16Q91.29 9.16 92.09 9.58L92.09 9.58L92.09 9.09L92.09 9.09Q92.09 7.64 90.64 7.64L90.64 7.64L90.64 7.64Q89.53 7.64 88.35 8.39L88.35 8.39L87.93 7.24L87.93 7.24Q89.21 6.43 90.76 6.43L90.76 6.43L90.76 6.43Q93.45 6.43 93.45 9.04L93.45 9.04L93.45 13.75L92.09 13.75L92.09 13.13L92.09 13.13Q91.28 13.92 90.05 13.92ZM90.27 12.68L90.27 12.68L90.27 12.68Q91.31 12.68 92.09 11.84L92.09 11.84L92.09 10.77L92.09 10.77Q91.35 10.35 90.44 10.35L90.44 10.35L90.44 10.35Q89.73 10.35 89.25 10.65L89.25 10.65L89.25 10.65Q88.77 10.95 88.77 11.52L88.77 11.52L88.77 11.52Q88.77 12.05 89.17 12.37L89.17 12.37L89.17 12.37Q89.57 12.68 90.27 12.68Z"></path></g><!----><g data-v-423bf9ae="" id="5bcb9f45-f12d-45ad-97a2-53df931bbb9f" transform="matrix(1.054263493840415,0,0,1.054263493840415,-0.31028841849747124,-8.450134625936563)" stroke="none" fill="#1f801f"><path d="M92.422 47.256c.042-.18.066-.366.066-.555 0-1.759-1.923-3.183-4.296-3.183-.857 0-1.654.187-2.325.507a23.485 23.485 0 0 0-3.477-.682c-1.048-1.185-2.872-1.969-4.947-1.969-2.636 0-4.868 1.265-5.617 3.009-4.149 1.408-7.342 3.932-8.726 6.997h13.774l-.007.006c-.992.803-3.626 2.15-10.126 2.15-4 0-7.329 1.349-9.897 4.011-1.134 1.176-2.026 2.524-2.73 3.934-.927-4.731-1.291-11.464 1.908-12.767 9.229-3.76 15.616-11.02 16.367-18.406H100c-2.484-5.501-8.046-10.083-15.315-12.812.268-.471.416-.976.416-1.501 0-2.548-3.419-4.613-7.637-4.613-.788 0-1.548.072-2.263.206-1.355-2.298-4.688-3.668-8.361-3.202-4.533.575-7.867 3.726-7.447 7.039.016.121.037.24.063.358-5.299 1.131-10.01 3.169-13.743 5.845a.611.611 0 0 1-.041-.01c-.445-.604-1.255-1.009-2.183-1.009-.569 0-1.092.154-1.516.41a35.266 35.266 0 0 0-3.696-.194c-3.123 0-6.105.408-8.841 1.147a5.063 5.063 0 0 0-2.015-.409c-2.122 0-3.883 1.254-4.231 2.901-1.788.988-3.362 2.147-4.671 3.442-1.222-.589-2.697-.934-4.287-.934-4.218 0-7.637 2.421-7.637 5.409 0 .708.194 1.384.544 2.004-2.893 1.861-5.088 4.22-6.287 6.877h15.355c.148.893.677 2.524 2.538 4.032 2.672 2.162 7.133 3.26 13.261 3.26 2.625 0 4.687.81 6.302 2.478 4.16 4.297 3.938 12.68 3.936 12.76l.013.001-1.895 28.043h.004l-.001.005c0 1.006 3.964 1.822 8.854 1.822 4.889 0 8.853-.816 8.853-1.822l-.001-.005h.001l-1.346-21.651c.362-2.825 1.3-6.695 3.715-9.189 1.615-1.668 3.677-2.479 6.303-2.479 6.127 0 10.588-1.096 13.259-3.26 1.76-1.424 2.33-2.959 2.511-3.877h13.243c-.695-1.534-1.843-2.932-3.335-4.124zM40.499 35.335c-1.527-1.16-3.301-2.167-5.266-2.98h4.82c.087 1.043.236 2.037.446 2.98zm6.172 13.102c-.568 1.612-.906 3.462-1.012 5.522-.792-2.259-1.979-4.53-3.758-6.374-2.568-2.662-5.897-4.012-9.896-4.012-5.521 0-8.261-.964-9.588-1.773a4.533 4.533 0 0 1-.723-.536H43.09c.425.583.891 1.127 1.401 1.634a13.622 13.622 0 0 0 3.65 2.579 13.147 13.147 0 0 0-1.47 2.96zm4.4-5.921c-1.246-.431-2.644-1.15-3.859-2.356-1.852-1.84-2.951-4.458-3.282-7.804h17.267a13.442 13.442 0 0 0-1.154-2.046h4.414c-.352 1.653-1.274 3.41-2.688 5.078-2.127 2.512-5.138 4.608-8.707 6.062-.71.288-1.374.647-1.991 1.066z"></path></g><!----></svg>