<?xml version="1.0" standalone="no"?>
<!DOCTYPE svg PUBLIC "-//W3C//DTD SVG 20010904//EN"
 "http://www.w3.org/TR/2001/REC-SVG-20010904/DTD/svg10.dtd">
<svg version="1.0" xmlns="http://www.w3.org/2000/svg"
 width="318.000000pt" height="250.000000pt" viewBox="0 0 318.000000 250.000000"
 preserveAspectRatio="xMidYMid meet">

<g transform="translate(0.000000,250.000000) scale(0.100000,-0.100000)"
fill="#A1C720" stroke="none">
<path d="M1810 2181 c-46 -25 -66 -49 -77 -91 -8 -32 -15 -37 -71 -56 -34 -11
-94 -37 -134 -56 -72 -35 -75 -35 -215 -37 -78 -1 -155 -6 -170 -10 -15 -4
-47 -6 -70 -3 -38 4 -46 0 -82 -35 -22 -21 -56 -51 -75 -66 -33 -26 -37 -27
-80 -16 -58 14 -135 -3 -171 -38 -19 -20 -25 -36 -25 -69 0 -36 -5 -46 -31
-65 -37 -26 -91 -98 -83 -110 3 -5 75 -9 160 -9 145 0 154 -1 154 -19 0 -29
76 -89 134 -105 28 -8 87 -17 131 -21 125 -10 143 -15 179 -51 81 -81 94 -156
77 -442 -7 -119 -15 -262 -18 -317 l-5 -101 26 -12 c34 -15 261 -16 305 -1 29
10 31 14 31 57 0 26 -5 88 -10 138 -15 139 -14 323 2 364 36 95 97 150 167
150 63 0 191 20 235 37 47 18 94 58 107 91 8 21 13 22 139 22 144 0 151 4 106
57 -13 15 -26 38 -30 51 -12 38 -50 55 -118 53 -48 -1 -72 4 -110 24 -72 38
-147 30 -188 -20 -7 -9 -33 -25 -56 -36 -51 -23 -124 -89 -124 -112 0 -15 16
-17 127 -17 109 0 125 -2 113 -14 -16 -15 -143 -36 -216 -36 -60 0 -133 -38
-180 -95 -21 -25 -42 -45 -46 -45 -14 0 -9 179 6 208 10 19 41 41 92 67 134
69 244 194 274 313 l11 42 279 0 c311 0 301 -3 252 66 -52 71 -177 165 -251
189 -15 5 -21 14 -21 37 0 58 -65 97 -164 98 -31 1 -50 8 -76 30 -31 27 -41
30 -105 30 -48 -1 -81 -7 -105 -19z m20 -442 c0 -28 -37 -83 -84 -127 -54 -49
-165 -112 -197 -112 -31 0 -116 90 -128 135 -22 80 -32 75 165 75 147 0 175 2
171 14 -3 8 -3 17 0 20 11 11 73 6 73 -5z m-501 -51 c13 -35 4 -38 -38 -15
-44 24 -44 37 0 37 22 0 32 -6 38 -22z m87 -195 c16 -16 40 -35 54 -44 23 -15
23 -16 8 -50 -9 -19 -19 -47 -23 -64 -13 -60 -15 -60 -41 -15 -61 107 -115
138 -263 151 -106 10 -177 25 -187 41 -3 4 91 8 209 8 l214 0 29 -27z"/>
</g>
</svg>
